<svg width="25" height="25" viewBox="0 0 25 25" fill="none" xmlns="http://www.w3.org/2000/svg">
<path d="M9.35356 4.35355L9.5 4.5H9.70711H15.5C16.0523 4.5 16.5 4.94772 16.5 5.5V13.5C16.5 14.0523 16.0523 14.5 15.5 14.5H3.5C2.94772 14.5 2.5 14.0523 2.5 13.5V3.5C2.5 2.94771 2.94771 2.5 3.5 2.5H7.5L9.35356 4.35355Z" fill="#E64C56" stroke="#6B6B6B" stroke-width="0.5"/>
<path d="M12.3536 8.35355L12.5 8.5H12.7071H18.5C19.0523 8.5 19.5 8.94772 19.5 9.5V17.5C19.5 18.0523 19.0523 18.5 18.5 18.5H6.5C5.94772 18.5 5.5 18.0523 5.5 17.5V7.5C5.5 6.94771 5.94771 6.5 6.5 6.5H10.5L12.3536 8.35355Z" fill="#E64C56" stroke="#6B6B6B" stroke-width="0.5"/>
<path d="M15.3536 12.3536L15.5 12.5H15.7071H21.5C22.0523 12.5 22.5 12.9477 22.5 13.5V21.5C22.5 22.0523 22.0523 22.5 21.5 22.5H9.5C8.94772 22.5 8.5 22.0523 8.5 21.5V11.5C8.5 10.9477 8.94771 10.5 9.5 10.5H13.5L15.3536 12.3536Z" fill="#E64C56" stroke="#6B6B6B" stroke-width="0.5"/>
</svg>
