<svg width="25" height="25" viewBox="0 0 25 25" fill="none" xmlns="http://www.w3.org/2000/svg">
<path d="M11.3536 6.35355L11.5 6.5H11.7071H17.5C18.0523 6.5 18.5 6.94772 18.5 7.5V15.5C18.5 16.0523 18.0523 16.5 17.5 16.5H5.5C4.94772 16.5 4.5 16.0523 4.5 15.5V5.5C4.5 4.94771 4.94771 4.5 5.5 4.5H9.5L11.3536 6.35355Z" fill="#E64C56" stroke="#6B6B6B" stroke-width="0.5"/>
<path d="M14.3536 10.3536L14.5 10.5H14.7071H20.5C21.0523 10.5 21.5 10.9477 21.5 11.5V19.5C21.5 20.0523 21.0523 20.5 20.5 20.5H8.5C7.94772 20.5 7.5 20.0523 7.5 19.5V9.5C7.5 8.94771 7.94771 8.5 8.5 8.5H12.5L14.3536 10.3536Z" fill="#E64C56" stroke="#6B6B6B" stroke-width="0.5"/>
</svg>
