<svg width="25" height="24" viewBox="0 0 25 24" fill="none" xmlns="http://www.w3.org/2000/svg">
<path d="M19.3212 10.75H4.69124C2.80124 10.75 1.26123 9.21002 1.26123 7.32002V4.69002C1.26123 2.80002 2.80124 1.26001 4.69124 1.26001H19.3212C21.2112 1.26001 22.7512 2.80002 22.7512 4.69002V7.32002C22.7512 9.21002 21.2112 10.75 19.3212 10.75ZM4.68123 2.75002C3.61123 2.75002 2.75124 3.62001 2.75124 4.68001V7.31001C2.75124 8.38001 3.62123 9.24002 4.68123 9.24002H19.3112C20.3812 9.24002 21.2412 8.37001 21.2412 7.31001V4.68001C21.2412 3.61001 20.3712 2.75002 19.3112 2.75002H4.68123Z" fill="#e64c56"/>
<path d="M19.3212 22.75H4.69124C2.80124 22.75 1.26123 21.21 1.26123 19.32V16.69C1.26123 14.8 2.80124 13.26 4.69124 13.26H19.3212C21.2112 13.26 22.7512 14.8 22.7512 16.69V19.32C22.7512 21.21 21.2112 22.75 19.3212 22.75ZM4.68123 14.75C3.61123 14.75 2.75124 15.62 2.75124 16.68V19.31C2.75124 20.38 3.62123 21.24 4.68123 21.24H19.3112C20.3812 21.24 21.2412 20.37 21.2412 19.31V16.68C21.2412 15.61 20.3712 14.75 19.3112 14.75H4.68123Z" fill="#e64c56"/>
<path d="M6.00146 7.75C5.59146 7.75 5.25146 7.41 5.25146 7V5C5.25146 4.59 5.59146 4.25 6.00146 4.25C6.41146 4.25 6.75146 4.59 6.75146 5V7C6.75146 7.41 6.41146 7.75 6.00146 7.75Z" fill="#e64c56"/>
<path d="M10.0015 7.75C9.59146 7.75 9.25146 7.41 9.25146 7V5C9.25146 4.59 9.59146 4.25 10.0015 4.25C10.4115 4.25 10.7515 4.59 10.7515 5V7C10.7515 7.41 10.4115 7.75 10.0015 7.75Z" fill="#e64c56"/>
<path d="M6.00146 19.75C5.59146 19.75 5.25146 19.41 5.25146 19V17C5.25146 16.59 5.59146 16.25 6.00146 16.25C6.41146 16.25 6.75146 16.59 6.75146 17V19C6.75146 19.41 6.41146 19.75 6.00146 19.75Z" fill="#e64c56"/>
<path d="M10.0015 19.75C9.59146 19.75 9.25146 19.41 9.25146 19V17C9.25146 16.59 9.59146 16.25 10.0015 16.25C10.4115 16.25 10.7515 16.59 10.7515 17V19C10.7515 19.41 10.4115 19.75 10.0015 19.75Z" fill="#e64c56"/>
<path d="M18.0015 6.75H14.0015C13.5915 6.75 13.2515 6.41 13.2515 6C13.2515 5.59 13.5915 5.25 14.0015 5.25H18.0015C18.4115 5.25 18.7515 5.59 18.7515 6C18.7515 6.41 18.4115 6.75 18.0015 6.75Z" fill="#e64c56"/>
<path d="M18.0015 18.75H14.0015C13.5915 18.75 13.2515 18.41 13.2515 18C13.2515 17.59 13.5915 17.25 14.0015 17.25H18.0015C18.4115 17.25 18.7515 17.59 18.7515 18C18.7515 18.41 18.4115 18.75 18.0015 18.75Z" fill="#e64c56"/>
</svg>
